<?xml version="1.0" standalone="no"?>
<!DOCTYPE svg PUBLIC "-//W3C//DTD SVG 20010904//EN"
 "http://www.w3.org/TR/2001/REC-SVG-20010904/DTD/svg10.dtd">
<svg version="1.0" xmlns="http://www.w3.org/2000/svg"
 width="1028.000000pt" height="254.000000pt" viewBox="0 0 1028.000000 254.000000"
 preserveAspectRatio="xMidYMid meet">

<g transform="translate(0.000000,254.000000) scale(0.100000,-0.100000)"
fill="#000000" stroke="none">
<path d="M3530 2405 c-199 -56 -290 -227 -290 -545 l0 -130 -105 0 c-98 0
-105 -1 -105 -20 0 -19 7 -20 105 -20 l106 0 -3 -707 c-3 -658 -4 -711 -21
-744 -23 -45 -55 -61 -137 -68 -49 -5 -65 -10 -65 -21 0 -13 50 -15 378 -18
372 -2 377 -2 377 18 0 19 -6 20 -90 20 -105 0 -140 13 -167 63 -17 30 -18 85
-21 745 l-3 712 166 0 c158 0 165 1 165 20 0 19 -7 20 -165 20 l-165 0 0 163
c0 165 12 301 32 370 7 21 28 57 48 79 32 37 41 41 93 46 107 9 134 -31 150
-220 l11 -130 37 5 c105 14 157 94 135 210 -9 47 -70 115 -125 139 -63 28
-261 35 -341 13z"/>
<path d="M4145 2338 c-72 -56 -74 -203 -4 -262 24 -20 41 -26 81 -26 87 0 138
57 138 155 0 99 -49 155 -135 155 -39 0 -60 -6 -80 -22z"/>
<path d="M656 2268 c-88 -16 -172 -62 -239 -130 -105 -106 -148 -222 -148
-403 -1 -186 40 -299 153 -420 73 -78 147 -132 337 -246 262 -156 341 -275
341 -514 0 -200 -58 -325 -178 -386 -63 -31 -207 -39 -280 -15 -56 19 -120 70
-151 120 -48 77 -91 256 -91 379 0 55 -1 57 -26 57 -38 0 -96 -36 -124 -77
-22 -32 -25 -47 -25 -127 0 -78 4 -99 27 -149 49 -105 120 -169 233 -213 58
-22 91 -27 195 -31 213 -8 352 36 460 146 108 110 154 242 154 441 0 140 -14
204 -67 303 -57 108 -174 202 -468 377 -127 75 -238 184 -270 265 -21 53 -23
76 -23 205 0 171 16 226 90 309 98 109 276 122 376 28 59 -55 101 -178 114
-334 l7 -83 36 0 c74 0 138 54 150 127 27 159 -100 317 -296 368 -63 17 -209
18 -287 3z"/>
<path d="M6686 2268 c-87 -16 -172 -63 -240 -130 -104 -105 -149 -229 -149
-408 1 -183 43 -297 156 -416 73 -78 146 -131 336 -245 265 -159 341 -275 341
-518 0 -143 -42 -272 -107 -333 -56 -52 -110 -72 -209 -76 -68 -3 -105 0 -142
12 -140 47 -224 206 -239 454 -6 102 -6 102 -32 102 -14 0 -44 -10 -65 -23
-141 -80 -105 -352 64 -481 83 -63 164 -88 310 -93 212 -8 353 36 458 145 109
112 154 238 155 437 1 192 -42 310 -151 420 -54 54 -198 153 -384 265 -50 30
-121 83 -158 117 -115 107 -146 194 -138 384 6 136 28 204 90 273 55 63 107
88 193 94 183 11 275 -111 300 -400 l7 -78 37 0 c89 0 151 66 151 161 0 158
-114 287 -297 334 -63 17 -209 18 -287 3z"/>
<path d="M2113 1861 c-342 -55 -631 -310 -727 -643 -81 -281 -7 -614 183 -832
147 -167 319 -263 539 -301 142 -25 262 -16 417 30 157 48 336 172 435 304 66
86 135 225 162 326 31 115 31 336 0 450 -88 318 -332 563 -647 646 -89 23
-275 33 -362 20z m299 -96 c297 -62 544 -295 624 -590 24 -89 29 -274 11 -361
-55 -257 -221 -467 -458 -578 -123 -59 -185 -71 -344 -70 -123 1 -150 4 -225
28 -224 72 -398 221 -495 421 -63 131 -79 204 -80 365 0 158 17 226 93 375 36
70 65 109 132 176 97 98 166 146 276 190 144 58 319 74 466 44z"/>
<path d="M2079 1376 c-102 -36 -188 -124 -219 -223 -23 -75 -24 -101 -9 -175
29 -138 132 -241 269 -269 66 -14 156 0 226 33 l44 22 108 -107 c116 -116 140
-127 180 -84 40 42 30 62 -87 181 -107 108 -109 112 -96 136 42 74 48 195 14
286 -30 80 -113 163 -192 192 -67 25 -180 29 -238 8z m206 -115 c167 -76 182
-314 25 -408 -46 -28 -64 -33 -117 -33 -127 0 -210 66 -232 187 -28 143 81
273 228 273 32 0 73 -8 96 -19z"/>
<path d="M5374 1732 c-108 -38 -158 -95 -232 -262 -8 -20 -11 5 -11 118 l-1
142 -222 -2 c-190 -3 -223 -5 -223 -18 0 -11 16 -16 60 -20 33 -3 70 -11 81
-17 49 -28 49 -33 49 -743 0 -710 0 -715 -49 -743 -11 -6 -50 -14 -86 -17 -49
-4 -65 -9 -65 -20 0 -13 43 -15 325 -15 282 0 325 2 325 15 0 11 -16 17 -63
21 -49 5 -69 12 -88 31 -40 39 -47 150 -41 663 6 475 11 539 56 641 74 166
256 226 358 118 80 -85 92 -213 93 -961 l0 -533 215 0 c208 0 215 1 215 20 0
16 -7 20 -32 20 -62 0 -107 19 -125 53 -16 29 -19 85 -24 602 -6 617 -8 634
-64 745 -37 72 -79 116 -143 146 -77 37 -229 45 -308 16z"/>
<path d="M7970 1740 c-152 -36 -264 -143 -338 -323 -85 -204 -104 -594 -41
-848 30 -119 88 -236 154 -308 101 -108 204 -151 368 -151 157 0 256 32 341
110 49 46 87 116 94 176 4 38 1 47 -28 75 -37 38 -40 35 -60 -55 -17 -84 -43
-138 -86 -186 -45 -50 -77 -67 -147 -81 -119 -23 -223 23 -294 129 -74 110
-109 268 -120 535 l-6 157 391 0 392 0 0 99 c0 352 -142 605 -375 667 -55 15
-190 17 -245 4z m194 -34 c67 -28 117 -119 145 -266 15 -74 31 -267 31 -362
l0 -78 -267 0 -266 0 7 133 c11 227 35 350 89 457 56 112 160 158 261 116z"/>
<path d="M9204 1736 c-170 -39 -284 -150 -284 -276 0 -102 50 -156 153 -167
l54 -5 7 105 c7 116 27 205 56 252 61 99 238 100 299 1 39 -63 51 -153 51
-397 l0 -226 -142 -6 c-368 -14 -533 -121 -569 -371 -14 -91 0 -237 28 -308
39 -101 110 -174 203 -209 44 -17 72 -20 140 -17 101 5 163 30 228 96 39 38
109 162 114 202 1 8 5 -50 8 -130 l5 -145 198 -3 c187 -2 197 -2 197 16 0 15
-9 21 -41 25 -46 6 -83 36 -94 75 -4 15 -10 286 -14 602 l-6 575 -27 73 c-14
40 -38 89 -53 108 -37 48 -109 99 -170 119 -68 24 -259 29 -341 11z m336 -967
c0 -244 -11 -318 -61 -425 -105 -222 -329 -220 -381 4 -8 33 -13 119 -13 207
0 127 4 161 22 220 48 153 145 210 361 214 l72 1 0 -221z"/>
<path d="M3910 1711 c0 -16 9 -19 66 -23 59 -4 70 -8 95 -35 19 -23 29 -47 34
-85 3 -29 5 -337 3 -683 -3 -581 -4 -633 -20 -658 -25 -37 -53 -50 -128 -56
-49 -5 -65 -10 -65 -21 0 -13 44 -15 340 -15 296 0 340 2 340 15 0 11 -16 17
-63 21 -34 3 -73 12 -86 19 -52 27 -51 13 -56 800 l-5 735 -227 3 c-218 2
-228 2 -228 -17z"/>
<path d="M10120 1712 c0 -17 9 -20 63 -24 34 -3 70 -9 80 -13 16 -7 18 -4 15
21 -3 29 -3 29 -80 32 -71 3 -78 1 -78 -16z"/>
<path d="M10250 185 c-14 -8 -49 -14 -77 -15 -46 0 -53 -3 -53 -20 0 -18 7
-20 75 -20 79 0 90 6 83 49 -3 18 -5 18 -28 6z"/>
</g>
</svg>
